<svg width="158" height="89" viewBox="0 0 158 89" fill="none" xmlns="http://www.w3.org/2000/svg">
<path d="M38.4763 3.16735L35.2891 6.33489L35.3776 14.1887L35.5104 22.0424L40.0256 19.3956L44.5409 16.7053L44.6737 10.7174L44.8065 4.72942L51.535 9.19869L58.2636 13.668L58.3079 27.2493C58.3079 40.8307 58.3079 40.8741 59.326 41.6985C59.8572 42.1324 60.4327 42.4796 60.654 42.5229C60.8311 42.5229 60.9196 35.754 60.8753 27.5097L60.7425 12.453L51.4465 6.24811C46.3558 2.82022 42.0619 0.0432014 41.9291 -0.000190735C41.7963 -0.000190735 40.247 1.43171 38.4763 3.16735Z" fill="#E2AF42"/>
<path d="M32.9868 27.6398L24.6646 33.1071V40.0063V46.862H25.9926H27.3206V40.5703V34.2786L33.2966 30.3735L39.2727 26.4683V52.8934V79.3185L35.6428 79.8392C33.6065 80.0995 31.526 80.4466 30.9948 80.5768L29.9766 80.7938V68.6877V56.5382L33.031 53.6744L36.0855 50.7672H30.2865H24.4433L21.6987 53.1971L18.9099 55.627V69.2084V82.8331L17.272 83.2671C15.4128 83.7444 4.12474 86.6516 1.51299 87.3024C0.583384 87.5628 -0.08062 87.8231 0.00791387 87.9099C0.0964477 87.9967 3.54927 87.6929 7.66609 87.2156C21.4774 85.6536 30.9948 85.0027 44.629 84.7423C63.3539 84.3952 75.0404 85.48 82.9199 88.257C84.4692 88.8211 85.753 89.1248 85.753 88.9513C85.753 88.7777 84.7791 87.7363 83.5839 86.6516C81.0607 84.3518 76.634 82.0521 72.0745 80.707C70.3038 80.1863 65.8328 78.1035 62.1587 76.1509L55.4301 72.5061L55.2973 75.5435L55.1645 78.5374H50.1181H45.0274V62.7865V46.9922L48.7901 45.3433L52.5528 43.6945V36.4482V29.2453L47.5063 25.6872C44.7175 23.7346 42.15 22.1292 41.8402 22.1726C41.5303 22.1726 37.5463 24.6458 32.9868 27.6398Z" fill="#E2AF42"/>
<path d="M55.2031 45.43V47.9466L62.1088 51.6349C65.9157 53.6742 69.1915 55.3665 69.4128 55.4533C69.6341 55.54 69.8112 54.6288 69.8112 53.4139V51.2443L62.6842 47.0788C58.7887 44.8225 55.4687 42.9567 55.3802 42.9567C55.2917 42.9567 55.2031 44.0848 55.2031 45.43Z" fill="#E2AF42"/>
<path d="M55.2969 53.0243L55.4297 55.2372L62.5124 59.0556L69.5951 62.874L69.7279 60.878C69.8164 59.7933 69.7279 58.7519 69.5065 58.5783C69.3295 58.4048 66.0095 56.5823 62.1582 54.543L55.1641 50.8113L55.2969 53.0243Z" fill="#E2AF42"/>
<path d="M55.2031 60.1832V62.3527L62.2416 66.0844C66.1371 68.1671 69.4128 69.8594 69.5456 69.8594C69.6784 69.8594 69.8112 68.9482 69.8112 67.7766V65.7372L67.2437 64.4355C65.8715 63.6979 62.5957 61.9622 59.984 60.5737L55.2031 58.057V60.1832Z" fill="#E2AF42"/>
<path d="M55.2031 67.5603V69.643L57.7706 70.9448C59.1429 71.6824 62.4186 73.4181 65.0746 74.8066L69.8112 77.3232V75.1537V72.9841L62.7728 69.2525C58.9215 67.2131 55.6458 65.5209 55.4687 65.5209C55.3359 65.5209 55.2031 66.4321 55.2031 67.5603Z" fill="#E2AF42"/>
<path d="M73.0391 50.6653V55.9136H74.2101H75.3812L75.3879 51.811L75.3979 47.705L78.3891 51.811L81.3804 55.9136H82.2269H83.0767L83.07 50.6722L83.06 45.4342H81.8889H80.7179L80.7011 48.9571L80.6844 52.4799L78.078 48.9468L75.4715 45.4171H74.2536H73.0391V50.6653Z" fill="white"/>
<path d="M107.266 50.803V55.9141H108.353H109.437L109.447 53.4855C109.457 51.122 109.461 51.0534 109.531 50.7996C109.728 50.0827 110.133 49.5716 110.678 49.3417C110.859 49.2663 110.963 49.2457 111.281 49.232C112.027 49.2011 112.445 49.4172 112.716 49.9729C112.92 50.388 112.92 50.4017 112.92 53.2865V55.9141H114.008H115.095V53.4169C115.095 51.887 115.082 50.8407 115.062 50.707C114.904 49.7225 114.279 48.9678 113.345 48.6385C112.716 48.4156 111.759 48.371 111.147 48.5356C110.484 48.714 109.922 49.0776 109.584 49.5475L109.44 49.7465V47.7192V45.692H108.353H107.266V50.803Z" fill="white"/>
<path d="M102.35 46.5322C102.35 46.5459 102.049 47.7637 101.879 48.4428L101.845 48.5698L101.32 48.5801L100.795 48.5903L100.671 48.9334C100.604 49.122 100.547 49.297 100.547 49.3176C100.544 49.3519 100.691 49.3622 101.179 49.3622H101.812L101.822 51.9245L101.832 54.4904L101.922 54.7648C102.2 55.5949 102.832 56.0168 103.889 56.0717C104.508 56.106 105.398 55.9997 105.847 55.835L105.981 55.787L105.991 55.3891L106.001 54.9946L105.756 55.0906C105.422 55.2244 105.141 55.2759 104.846 55.2553C104.438 55.2279 104.201 55.0426 104.05 54.6276C103.973 54.4217 103.973 54.4183 103.963 51.8937L103.953 49.3622L104.833 49.3553L105.71 49.345L105.82 48.9848C105.88 48.7859 105.93 48.6144 105.93 48.5972C105.93 48.5835 105.485 48.5732 104.943 48.5732H103.956V47.5441V46.5151H103.153C102.712 46.5151 102.35 46.5219 102.35 46.5322Z" fill="white"/>
<path d="M88.3484 48.4903C87.6592 48.5863 86.9732 48.8196 86.4446 49.1455C86.1033 49.3547 85.5814 49.8727 85.3639 50.2157C84.959 50.864 84.7884 51.5844 84.8252 52.4659C84.8587 53.1932 85.0427 53.8037 85.384 54.332C85.9528 55.2033 86.8695 55.7487 88.161 55.9888C88.6295 56.0746 89.7369 56.0917 90.2188 56.0231C91.875 55.7796 93.0226 54.9734 93.5078 53.7145C93.8624 52.7952 93.839 51.5295 93.4542 50.6548C92.9189 49.4508 91.7043 48.6618 90.0849 48.4697C89.6734 48.4217 88.7499 48.432 88.3484 48.4903ZM89.8507 49.2758C90.7039 49.5022 91.2727 50.2054 91.5136 51.334C91.5437 51.4712 91.5571 51.7902 91.5538 52.2944C91.5538 53.0011 91.5471 53.0731 91.4634 53.3921C91.1221 54.6956 90.3191 55.3542 89.1481 55.2856C88.3183 55.2376 87.7294 54.8294 87.3614 54.0541C87.0803 53.4573 86.9632 52.8021 87 52.02C87.0502 51.0355 87.2844 50.3838 87.783 49.8384C88.0239 49.5811 88.3852 49.3616 88.7198 49.2793C88.9875 49.2107 89.6031 49.2107 89.8507 49.2758Z" fill="white"/>
<path d="M99.2953 48.491C98.5358 48.6625 98.0372 49.0673 97.6759 49.8082L97.5654 50.0312V49.3006V48.5734H96.478H95.3906V52.2437V55.9141H96.4747H97.5621L97.5755 53.9314C97.5855 52.0688 97.5922 51.935 97.6558 51.6571C97.9302 50.5149 98.4354 49.894 99.2384 49.7191C99.5128 49.6607 99.9377 49.671 100.135 49.7431C100.195 49.7636 100.256 49.7739 100.266 49.7636C100.292 49.7328 100.416 48.4979 100.393 48.4739C100.346 48.4293 99.5161 48.4396 99.2953 48.491Z" fill="white"/>
<path d="M73.0391 66.6246V72.167L76.5631 72.1525C80.4261 72.1417 80.3096 72.1453 81.2101 71.9136C82.5166 71.5733 83.3605 70.9072 83.6536 69.9804C83.7807 69.5822 83.8089 68.9668 83.7242 68.565C83.5512 67.7685 82.9474 67.1314 82.0257 66.7658C81.7221 66.6463 81.0688 66.4617 80.7969 66.4218C80.7051 66.411 80.6345 66.3893 80.6451 66.382C80.6557 66.3712 80.7934 66.3169 80.9558 66.2589C82.0787 65.8571 82.8661 65.115 83.0851 64.2534C83.1486 63.9891 83.1522 63.5185 83.0886 63.2759C82.845 62.3311 81.7892 61.5781 80.2778 61.2704C79.5081 61.1147 79.4374 61.1111 76.1923 61.0966L73.0391 61.0821V66.6246ZM79.0949 62.2008C79.561 62.3311 79.9177 62.5338 80.1648 62.8017C80.465 63.1311 80.5356 63.3375 80.5391 63.8552C80.5391 64.1665 80.525 64.3077 80.465 64.5068C80.2319 65.267 79.6211 65.734 78.6535 65.8824C78.4063 65.9223 77.9685 65.9367 76.9868 65.9367H75.6521V64.0145V62.0958L77.234 62.1066C78.7277 62.1211 78.8266 62.1247 79.0949 62.2008ZM78.9325 67.0047C80.073 67.1929 80.811 67.6853 81.0617 68.4238C81.1288 68.6337 81.143 68.7387 81.143 69.1225C81.1394 69.7813 80.9982 70.223 80.6769 70.5741C80.465 70.8058 80.2319 70.9542 79.8965 71.0737L79.6246 71.1678L77.6401 71.1787L75.6521 71.1896V69.0464V66.9069L77.1104 66.925C78.2333 66.9395 78.65 66.9576 78.9325 67.0047Z" fill="white"/>
<path d="M105.945 66.7691V72.1631H107.093H108.237L108.248 69.6C108.258 67.0949 108.262 67.0334 108.336 66.7582C108.456 66.3311 108.678 65.922 108.947 65.6432C109.314 65.2631 109.706 65.1038 110.289 65.1038C111.009 65.1038 111.457 65.3572 111.715 65.9147C111.909 66.3347 111.913 66.3673 111.913 69.3828V72.1631H113.06H114.212L114.201 69.3828C114.187 66.2695 114.201 66.4288 113.919 65.8387C113.678 65.3319 113.177 64.8468 112.633 64.5934C112.195 64.3907 111.786 64.3038 111.154 64.2821C110.666 64.2676 110.539 64.2748 110.218 64.3436C109.434 64.5101 108.802 64.8866 108.403 65.4296L108.241 65.6541V63.5146V61.3751H107.093H105.945V66.7691Z" fill="white"/>
<path d="M153.652 63.3192L153.387 64.398L152.826 64.4161L152.264 64.4342L152.13 64.8324C152.056 65.0496 151.996 65.2343 151.992 65.2379C151.992 65.2451 152.292 65.2488 152.663 65.2488H153.33L153.341 67.9168L153.352 70.5884L153.443 70.8853C153.666 71.6202 154.111 72.0365 154.87 72.2356C155.537 72.413 156.826 72.3442 157.554 72.098L157.73 72.0365L157.741 71.6129L157.751 71.1894L157.564 71.2727C157.13 71.4681 156.625 71.5261 156.275 71.4211C156.046 71.3523 155.834 71.1387 155.728 70.8672L155.647 70.6608L155.636 67.953L155.629 65.2488H156.54H157.455L157.564 64.8759C157.628 64.6732 157.677 64.4849 157.677 64.4596C157.677 64.427 157.434 64.4161 156.653 64.4161H155.629V63.3301V62.244H154.771H153.917L153.652 63.3192Z" fill="white"/>
<path d="M99.0474 64.297C98.7473 64.326 98.1011 64.4563 97.8257 64.5468C96.3779 65.0174 95.4987 66.0202 95.2691 67.4719C95.2091 67.8484 95.2021 68.6593 95.2515 69.0322C95.4987 70.8096 96.6216 71.8957 98.5637 72.2324C99.4253 72.3808 100.552 72.3663 101.378 72.1962C102.603 71.9427 103.483 71.3563 103.878 70.5237C103.987 70.2956 104.044 70.1146 104.129 69.7272L104.15 69.6295L103.299 69.6367L102.448 69.6476L102.37 69.9191C102.275 70.2485 102.187 70.4259 101.999 70.6721C101.558 71.2441 100.813 71.5409 99.9302 71.5011C99.45 71.4794 99.1922 71.4178 98.8356 71.2441C98.2388 70.9544 97.8469 70.4078 97.6279 69.5716C97.5502 69.2602 97.5361 69.119 97.522 68.4819C97.5079 67.8991 97.5149 67.6746 97.5644 67.385C97.7551 66.2012 98.2847 65.4989 99.2063 65.2057C99.4394 65.1333 99.5418 65.1224 100.071 65.1224C100.601 65.1224 100.704 65.1333 100.937 65.2057C101.668 65.4374 102.211 66.0202 102.395 66.7696L102.444 66.9687L103.299 66.9795L104.153 66.9868L104.129 66.8528C103.934 65.7523 103.193 64.9595 101.996 64.5685C101.325 64.3513 100.711 64.2681 99.7996 64.2789C99.4641 64.2825 99.1251 64.2898 99.0474 64.297Z" fill="white"/>
<path d="M119.244 64.3082C118.203 64.4421 117.398 64.8041 116.868 65.3797C116.504 65.7707 116.342 66.0929 116.215 66.6504L116.165 66.8785H117.023H117.881L117.906 66.7083C117.966 66.2992 118.224 65.7997 118.503 65.5535C118.676 65.3942 118.994 65.2349 119.283 65.1589C119.53 65.0937 120.198 65.0865 120.473 65.1444C120.946 65.2458 121.335 65.5318 121.533 65.9264C121.702 66.2558 121.748 66.4839 121.752 67.0016L121.755 67.4396L120.254 67.4613C118.485 67.4866 118.206 67.5229 117.451 67.8269C116.73 68.1202 116.247 68.6234 116.042 69.2859C115.925 69.6623 115.936 70.2959 116.066 70.7013C116.172 71.038 116.423 71.429 116.66 71.6281C117.158 72.048 117.91 72.2797 118.948 72.3304C120.152 72.3919 121.215 72.0154 121.776 71.3276L121.925 71.143L122.009 71.5557C122.055 71.7801 122.101 72.0082 122.112 72.0625L122.136 72.1639H123.21C124.163 72.1639 124.283 72.1566 124.266 72.1096C124.213 71.9611 124.1 70.9837 124.068 70.3683C124.05 69.9918 124.033 69.0107 124.033 68.189C124.033 66.9472 124.022 66.6504 123.976 66.4332C123.736 65.3363 122.86 64.6267 121.42 64.3625C121.031 64.2901 119.651 64.2575 119.244 64.3082ZM121.752 69.1229C121.752 69.8325 121.741 70.0099 121.688 70.1909C121.536 70.7086 121.201 71.1285 120.77 71.3348C120.463 71.4833 120.004 71.5629 119.619 71.5376C118.736 71.476 118.309 71.038 118.252 70.133C118.196 69.2497 118.574 68.6777 119.389 68.4134C119.742 68.2976 120.152 68.2614 121.049 68.2686L121.755 68.2722L121.752 69.1229Z" fill="white"/>
<path d="M130.311 64.326C129.513 64.4998 128.945 64.9523 128.595 65.698L128.475 65.9514L128.468 65.1912L128.457 64.4346L127.32 64.4237L126.18 64.4165V68.29V72.1636H127.327H128.475V70.1942C128.475 68.5869 128.486 68.1669 128.528 67.9063C128.609 67.4357 128.701 67.1425 128.902 66.7298C129.185 66.1542 129.51 65.8537 130.064 65.6618C130.304 65.5786 130.964 65.5677 131.169 65.6437C131.243 65.6691 131.31 65.6835 131.317 65.6763C131.356 65.6401 131.466 64.3586 131.434 64.326C131.385 64.2681 130.572 64.2681 130.311 64.326Z" fill="white"/>
<path d="M136 64.2931C133.846 64.5646 132.504 65.7882 132.254 67.6996C132.197 68.1413 132.233 68.9812 132.324 69.3649C132.501 70.0925 132.78 70.6102 133.26 71.0953C133.853 71.6999 134.574 72.0583 135.573 72.2429C136.12 72.3443 137.321 72.3515 137.854 72.261C138.853 72.0836 139.62 71.7397 140.195 71.2039C140.531 70.8962 140.827 70.4003 140.976 69.9043C141.014 69.7704 141.05 69.6509 141.05 69.6437C141.05 69.6364 140.665 69.6328 140.199 69.6364L139.344 69.6473L139.298 69.8283C139.157 70.3966 138.928 70.784 138.564 71.0664C138.278 71.2836 138.041 71.3849 137.632 71.4573C137.053 71.5623 136.35 71.5008 135.884 71.3125C135.502 71.1532 135.142 70.8274 134.92 70.4437C134.687 70.031 134.517 69.307 134.517 68.6988V68.3621L137.829 68.3549L141.138 68.344L141.127 68.0363C141.089 66.9286 140.739 66.0525 140.072 65.39C139.531 64.8506 138.892 64.5393 137.953 64.3583C137.653 64.304 136.293 64.2569 136 64.2931ZM137.314 65.1438C137.865 65.2633 138.317 65.647 138.589 66.2262C138.74 66.5521 138.864 66.9792 138.913 67.3557L138.935 67.5295H136.749H134.56L134.609 67.2688C134.683 66.867 134.757 66.6317 134.906 66.3168C135.195 65.7086 135.63 65.3212 136.219 65.1619C136.445 65.0968 137.056 65.0895 137.314 65.1438Z" fill="white"/>
<path d="M145.782 64.3258C144.239 64.5286 143.321 65.1367 143.13 66.0816C143.077 66.3386 143.109 66.8527 143.187 67.059C143.529 67.9423 144.497 68.4202 146.753 68.8293C147.678 68.9958 148.109 69.1696 148.469 69.5135C148.727 69.756 148.801 69.937 148.776 70.2556C148.709 71.0846 147.911 71.5552 146.665 71.5009C145.531 71.4503 144.928 71.0376 144.666 70.1325L144.613 69.9551H143.769C143.303 69.9551 142.922 69.9588 142.922 69.966C142.922 69.9732 142.961 70.0927 143.007 70.2303C143.519 71.7797 145.005 72.4711 147.488 72.3155C148.889 72.2286 149.811 71.9571 150.415 71.4575C150.934 71.0267 151.206 70.2339 151.068 69.5424C150.99 69.1587 150.867 68.9089 150.613 68.6302C150.03 67.993 149.119 67.6165 147.336 67.2762C146.262 67.0699 145.8 66.9034 145.577 66.6463C145.372 66.4074 145.355 65.9078 145.545 65.6218C145.655 65.4517 145.895 65.296 146.188 65.2019C146.404 65.1331 146.513 65.1223 147.071 65.1223C147.636 65.1223 147.735 65.1331 147.971 65.2055C148.586 65.401 149.002 65.8101 149.19 66.3966L149.25 66.5884H150.097H150.945L150.92 66.469C150.697 65.3684 149.797 64.6516 148.289 64.3729C147.763 64.2788 146.351 64.2498 145.782 64.3258Z" fill="white"/>
<path d="M85.1484 67.1135C85.1484 70.0856 85.1484 70.0965 85.3674 70.6395C85.491 70.9363 85.8123 71.3961 86.0312 71.5771C86.409 71.8957 86.8999 72.1274 87.4437 72.2468C87.9062 72.3482 88.7502 72.3518 89.1739 72.2613C89.9649 72.0839 90.6746 71.6314 91.0136 71.0811L91.116 70.9182V71.5409V72.1636H92.2636H93.4112V68.29V64.4165H92.2636H91.116V66.8383C91.116 68.8403 91.1054 69.3109 91.063 69.5752C90.89 70.5852 90.318 71.2875 89.5305 71.4613C88.8879 71.5988 88.2099 71.4395 87.885 71.0703C87.7297 70.8965 87.5637 70.5635 87.4896 70.2738C87.4366 70.0711 87.4295 69.7127 87.4189 67.2293L87.4048 64.4165H86.2749H85.1484V67.1135Z" fill="white"/>
<path d="M73.1953 78.4361V79.9468H73.375H73.5546V78.4361V76.9253H73.375H73.1953V78.4361Z" fill="white"/>
<path d="M78.3594 78.4361V79.9468H78.5064H78.6534L78.6566 78.5879L78.6615 77.2291L79.7362 78.5879L80.8125 79.9468H80.8843H80.9562V78.4361V76.9253H80.8174H80.6785V78.1453V79.367L80.6393 79.3262C80.6197 79.3033 80.182 78.7545 79.6676 78.1045L78.7334 76.9253H78.5456H78.3594V78.4361Z" fill="white"/>
<path d="M85.7578 76.9155C85.7594 76.922 86.091 77.6112 86.4977 78.4474L87.2375 79.9663H87.3175H87.3992L88.1717 78.4556C88.598 77.6243 88.9491 76.9351 88.954 76.9236C88.9605 76.9073 88.936 76.904 88.8446 76.9073L88.727 76.9122L88.0655 78.2139C87.7013 78.9309 87.3992 79.5172 87.3927 79.5172C87.3878 79.5172 87.1068 78.9309 86.7704 78.2139L86.1579 76.9122L85.9571 76.9073C85.8476 76.9057 85.7578 76.9089 85.7578 76.9155Z" fill="white"/>
<path d="M93.7578 78.4361V79.9468H95.0072H96.2566V79.857V79.7671H95.1869H94.1171V79.0893V78.4116H95.0562H95.9953V78.3217V78.2319H95.0562H94.1171V77.6685V77.105H95.1869H96.2566V77.0152V76.9253H95.0072H93.7578V78.4361Z" fill="white"/>
<path d="M102.099 76.8968C101.905 76.918 101.679 76.9834 101.531 77.0601C101.228 77.2169 101.09 77.4668 101.14 77.7608C101.173 77.9502 101.246 78.0596 101.418 78.1723C101.615 78.303 101.877 78.3863 102.499 78.5186C102.888 78.6002 103.156 78.7097 103.283 78.8371C103.383 78.9367 103.405 79.002 103.405 79.1882C103.405 79.3336 103.401 79.3613 103.361 79.4348C103.283 79.5834 103.115 79.6978 102.875 79.7631C102.79 79.786 102.705 79.7925 102.442 79.7925C102.151 79.7925 102.101 79.7892 101.988 79.7549C101.619 79.6488 101.442 79.4528 101.38 79.0771L101.37 79.0167H101.219C101.135 79.0167 101.063 79.02 101.059 79.0249C101.039 79.0461 101.098 79.2764 101.152 79.3891C101.232 79.5589 101.398 79.7223 101.583 79.817C102.053 80.0522 102.88 80.0522 103.335 79.8153C103.649 79.652 103.788 79.4152 103.77 79.0804C103.763 78.9661 103.752 78.9154 103.711 78.8305C103.57 78.5316 103.25 78.3749 102.417 78.2001C101.738 78.058 101.513 77.9208 101.491 77.6383C101.47 77.3917 101.604 77.2267 101.908 77.1255C102.027 77.0846 102.052 77.083 102.368 77.083C102.643 77.0814 102.721 77.0863 102.808 77.1108C102.942 77.1483 103.077 77.2169 103.162 77.292C103.231 77.3508 103.337 77.5321 103.356 77.6236L103.368 77.6775H103.531H103.695L103.685 77.6154C103.678 77.5827 103.647 77.5011 103.616 77.4341C103.422 77.0193 102.839 76.8135 102.099 76.8968Z" fill="white"/>
<path d="M108.578 77.0152V77.105H109.223H109.868V78.5259V79.9468H110.048H110.228V78.5259V77.105H110.865H111.502V77.0152V76.9253H110.04H108.578V77.0152Z" fill="white"/>
<path d="M116.305 78.437V79.9478H116.411H116.517L116.52 78.6036L116.525 77.2579L117.17 78.6036L117.815 79.9478L117.887 79.9445L117.961 79.9396L118.581 78.6265L119.204 77.315L119.209 78.6314L119.212 79.9478H119.391H119.571V78.437V76.9247L119.365 76.9296L119.16 76.9345L118.562 78.2019C118.232 78.8992 117.959 79.4676 117.954 79.466C117.949 79.4627 117.673 78.8894 117.342 78.1937L116.739 76.9263H116.522H116.305V78.437Z" fill="white"/>
<path d="M124.367 78.4361V79.9468H125.608H126.85V79.857V79.7671H125.788H124.726V79.0893V78.4116H125.666H126.605V78.3217V78.2319H125.666H124.726V77.6685V77.105H125.788H126.85V77.0152V76.9253H125.608H124.367V78.4361Z" fill="white"/>
<path d="M131.656 78.4361V79.9468H131.795H131.934L131.937 78.5814L131.942 77.2161L133.02 78.5814L134.098 79.9451H134.168L134.237 79.9468V78.4361V76.9253H134.098H133.959L133.956 78.1404L133.951 79.3556L132.987 78.1404L132.024 76.9253H131.841H131.656V78.4361Z" fill="white"/>
<path d="M139.039 77.0152V77.105H139.684H140.329V78.5259V79.9468H140.509H140.689V78.5259V77.105H141.334H141.979V77.0152V76.9253H140.509H139.039V77.0152Z" fill="white"/>
<path d="M147.83 76.8949C147.17 76.9717 146.786 77.313 146.863 77.7556C146.887 77.8993 146.932 77.9843 147.029 78.0839C147.211 78.2619 147.467 78.3566 148.218 78.5183C148.702 78.6228 148.96 78.7421 149.068 78.9136C149.136 79.0197 149.159 79.1455 149.135 79.2778C149.087 79.5374 148.893 79.6991 148.547 79.771C148.336 79.8151 147.902 79.8053 147.707 79.753C147.381 79.6665 147.18 79.4607 147.123 79.1536C147.111 79.1014 147.101 79.0475 147.098 79.036C147.095 79.023 147.047 79.0164 146.936 79.0164H146.781V79.0622C146.781 79.0867 146.793 79.152 146.806 79.2043C146.876 79.4786 147.056 79.6942 147.32 79.8216C147.614 79.9621 147.988 80.0176 148.395 79.9833C148.999 79.9294 149.363 79.7155 149.468 79.3529C149.51 79.2059 149.496 78.9577 149.438 78.8303C149.311 78.5542 148.97 78.3779 148.282 78.2309C147.593 78.0855 147.364 77.9908 147.261 77.803C147.221 77.7295 147.214 77.7017 147.216 77.5956C147.217 77.3979 147.309 77.2689 147.518 77.1709C147.688 77.0925 147.854 77.068 148.169 77.0778C148.543 77.0876 148.713 77.1399 148.886 77.295C148.971 77.3702 149.058 77.5204 149.078 77.6217L149.087 77.6772H149.249C149.435 77.6772 149.432 77.6805 149.378 77.5221C149.305 77.3065 149.153 77.1464 148.914 77.0337C148.833 76.9929 148.718 76.9504 148.659 76.9357C148.429 76.8802 148.096 76.8639 147.83 76.8949Z" fill="white"/>
</svg>
