<svg width="164" height="113" viewBox="0 0 164 113" fill="none" xmlns="http://www.w3.org/2000/svg">
<path d="M39.8706 4.02167L36.5673 8.04326L36.659 18.0146L36.7967 27.9859L41.4764 24.6254L46.1561 21.2098L46.2937 13.6074L46.4314 6.00492L53.4051 11.6792L60.3788 17.3535L60.4247 34.5968C60.4247 51.84 60.4247 51.8951 61.4799 52.9418C62.0305 53.4927 62.6269 53.9334 62.8563 53.9885C63.0398 53.9885 63.1316 45.3944 63.0857 34.9273L62.9481 15.811L53.3133 7.93308C48.0372 3.58095 43.5869 0.0551749 43.4492 8.43126e-05C43.3116 8.43126e-05 41.7058 1.81806 39.8706 4.02167Z" fill="#E2AF42"/>
<path d="M34.1885 35.0885L25.5631 42.0298V50.7892V59.4935H26.9395H28.3159V51.5054V43.5173L34.5097 38.5592L40.7034 33.601V67.151V100.701L36.9413 101.362C34.8308 101.693 32.6745 102.133 32.1239 102.299L31.0687 102.574V87.2039V71.7786L34.2344 68.1426L37.4001 64.4516H31.3899H25.3337L22.4892 67.5366L19.5988 70.6217V87.865V105.163L17.9012 105.714C15.9743 106.32 4.27501 110.011 1.56811 110.838C0.604637 111.168 -0.083557 111.499 0.00820217 111.609C0.0999614 111.719 3.67857 111.333 7.94537 110.727C22.2598 108.744 32.1239 107.918 46.2548 107.587C65.6619 107.147 77.7741 108.524 85.9407 112.05C87.5465 112.766 88.877 113.151 88.877 112.931C88.877 112.711 87.8676 111.388 86.6289 110.011C84.0138 107.091 79.4258 104.172 74.7002 102.464C72.865 101.803 68.2312 99.1585 64.4232 96.6794L57.4495 92.0518L57.3118 95.9081L57.1742 99.7094H51.9439H46.6678V79.7116V59.6587L50.5675 57.5653L54.4673 55.4719V46.2718V37.1268L49.237 32.6094C46.3466 30.1304 43.6856 28.092 43.3644 28.1471C43.0433 28.1471 38.9141 31.2872 34.1885 35.0885Z" fill="#E2AF42"/>
<path d="M57.2173 57.6745V60.8697L64.3745 65.5524C68.3202 68.1416 71.7153 70.2902 71.9447 70.4003C72.174 70.5105 72.3576 69.3536 72.3576 67.8111V65.0566L64.971 59.7679C60.9335 56.9032 57.4926 54.5343 57.4008 54.5343C57.3091 54.5343 57.2173 55.9667 57.2173 57.6745Z" fill="#E2AF42"/>
<path d="M57.3078 67.3127L57.4455 70.1223L64.7862 74.9703L72.127 79.8182L72.2646 77.2841C72.3564 75.9068 72.2646 74.5847 72.0352 74.3643C71.8517 74.1439 68.4107 71.8301 64.4192 69.2409L57.1702 64.5031L57.3078 67.3127Z" fill="#E2AF42"/>
<path d="M57.2173 76.4083V79.1628L64.5122 83.9006C68.5496 86.5449 71.9447 88.6934 72.0823 88.6934C72.2199 88.6934 72.3576 87.5365 72.3576 86.0491V83.4599L69.6966 81.8072C68.2743 80.8706 64.8792 78.667 62.1723 76.9041L57.2173 73.7089V76.4083Z" fill="#E2AF42"/>
<path d="M57.2173 85.7701V88.4144L59.8783 90.0671C61.3006 91.0037 64.6957 93.2073 67.4485 94.9702L72.3576 98.1654V95.4109V92.6564L65.0627 87.9186C61.0712 85.3294 57.6761 83.1808 57.4926 83.1808C57.3549 83.1808 57.2173 84.3377 57.2173 85.7701Z" fill="#E2AF42"/>
<path d="M75.7089 64.3256V70.9889H76.9227H78.1364L78.1433 65.7802L78.1537 60.5671L81.2539 65.7802L84.3541 70.9889H85.2314H86.1123L86.1053 64.3343L86.0949 57.684H84.8812H83.6675L83.6501 62.1567L83.6328 66.6294L80.9314 62.1437L78.23 57.6623H76.9677H75.7089V64.3256Z" fill="white"/>
<path d="M111.185 64.4998V70.9889H112.312H113.436L113.446 67.9055C113.457 64.9048 113.46 64.8177 113.533 64.4954C113.738 63.5852 114.157 62.9363 114.722 62.6445C114.91 62.5487 115.017 62.5226 115.347 62.5051C116.12 62.4659 116.553 62.7403 116.834 63.4458C117.046 63.9728 117.046 63.9902 117.046 67.6529V70.9889H118.173H119.3V67.8184C119.3 65.876 119.286 64.5477 119.265 64.3778C119.102 63.1279 118.454 62.1698 117.486 61.7517C116.834 61.4686 115.842 61.412 115.208 61.621C114.521 61.8475 113.939 62.3091 113.588 62.9058L113.439 63.1584V60.5845V58.0107H112.312H111.185V64.4998Z" fill="white"/>
<path d="M106.085 59.0835C106.085 59.1009 105.773 60.647 105.596 61.5093L105.561 61.6705L105.017 61.6835L104.472 61.6966L104.344 62.1321C104.275 62.3716 104.216 62.5937 104.216 62.6199C104.212 62.6634 104.365 62.6765 104.871 62.6765H105.526L105.537 65.9298L105.547 69.1874L105.641 69.5358C105.929 70.5897 106.584 71.1254 107.68 71.1951C108.321 71.2386 109.244 71.1036 109.709 70.8946L109.847 70.8336L109.858 70.3284L109.868 69.8276L109.615 69.9495C109.268 70.1194 108.977 70.1847 108.672 70.1586C108.249 70.1237 108.002 69.8886 107.846 69.3616C107.767 69.1003 107.767 69.0959 107.756 65.8906L107.746 62.6765L108.658 62.6678L109.566 62.6547L109.681 62.1974C109.743 61.9448 109.795 61.7271 109.795 61.7053C109.795 61.6879 109.334 61.6748 108.772 61.6748H107.749V60.3683V59.0618H106.917C106.459 59.0618 106.085 59.0705 106.085 59.0835Z" fill="white"/>
<path d="M91.586 61.555C90.8717 61.677 90.1608 61.9731 89.6129 62.3869C89.2592 62.6525 88.7182 63.3101 88.4928 63.7457C88.0732 64.5688 87.8963 65.4833 87.9345 66.6026C87.9691 67.5259 88.1599 68.3011 88.5136 68.9718C89.1031 70.078 90.0533 70.7704 91.3918 71.0753C91.8773 71.1842 93.0252 71.206 93.5245 71.1189C95.2411 70.8096 96.4305 69.7862 96.9333 68.1879C97.3009 67.0207 97.2767 65.4137 96.8779 64.3031C96.323 62.7745 95.0642 61.7728 93.3858 61.5289C92.9593 61.4679 92.0022 61.481 91.586 61.555ZM93.1431 62.5524C94.0274 62.8398 94.6169 63.7326 94.8666 65.1654C94.8978 65.3396 94.9116 65.7446 94.9082 66.3848C94.9082 67.282 94.9012 67.3735 94.8145 67.7785C94.4608 69.4334 93.6286 70.2696 92.4148 70.1825C91.5548 70.1215 90.9445 69.6033 90.563 68.619C90.2718 67.8612 90.1504 67.0294 90.1885 66.0364C90.2405 64.7865 90.4833 63.9591 91 63.2666C91.2497 62.94 91.6242 62.6612 91.971 62.5567C92.2484 62.4696 92.8865 62.4696 93.1431 62.5524Z" fill="white"/>
<path d="M102.917 61.5644C102.13 61.7822 101.614 62.2961 101.239 63.2368L101.125 63.5199V62.5922V61.6689H99.9976H98.8706V66.3289V70.9889H99.9941H101.121L101.135 68.4716C101.145 66.1068 101.152 65.937 101.218 65.5842C101.503 64.1339 102.026 63.3457 102.858 63.1236C103.143 63.0495 103.583 63.0626 103.788 63.154C103.85 63.1802 103.913 63.1932 103.923 63.1802C103.951 63.141 104.079 61.5731 104.055 61.5427C104.006 61.486 103.146 61.4991 102.917 61.5644Z" fill="white"/>
<path d="M75.7089 84.5945V91.6313L79.3614 91.6129C83.3651 91.5991 83.2444 91.6037 84.1776 91.3096C85.5317 90.8775 86.4064 90.0318 86.7101 88.8552C86.8419 88.3496 86.8712 87.5683 86.7833 87.0581C86.604 86.0469 85.9782 85.238 85.023 84.7738C84.7083 84.6221 84.0312 84.3877 83.7494 84.3371C83.6542 84.3233 83.5811 84.2958 83.592 84.2866C83.603 84.2728 83.7457 84.2038 83.9141 84.1303C85.0779 83.6201 85.894 82.6779 86.1209 81.584C86.1868 81.2485 86.1905 80.651 86.1246 80.343C85.8721 79.1434 84.7778 78.1874 83.2114 77.7967C82.4136 77.5991 82.3404 77.5945 78.9771 77.5761L75.7089 77.5577V84.5945ZM81.9854 78.978C82.4685 79.1434 82.8381 79.4008 83.0943 79.7409C83.4054 80.1592 83.4786 80.4212 83.4822 81.0784C83.4822 81.4737 83.4676 81.653 83.4054 81.9057C83.1638 82.8709 82.5307 83.4639 81.5279 83.6523C81.2718 83.7029 80.8179 83.7212 79.8005 83.7212H78.4171V81.2807V78.8447L80.0567 78.8585C81.6048 78.8768 81.7073 78.8814 81.9854 78.978ZM81.8171 85.0771C82.9992 85.3161 83.764 85.9412 84.0239 86.8788C84.0934 87.1454 84.1081 87.2787 84.1081 87.7659C84.1044 88.6024 83.958 89.1632 83.625 89.609C83.4054 89.9031 83.1638 90.0916 82.8162 90.2433L82.5344 90.3628L80.4776 90.3766L78.4171 90.3903V87.6694V84.953L79.9286 84.976C81.0924 84.9944 81.5243 85.0174 81.8171 85.0771Z" fill="white"/>
<path d="M109.812 84.783V91.6313H111.001H112.187L112.198 88.3772C112.209 85.1966 112.212 85.1185 112.289 84.7692C112.414 84.2268 112.644 83.7075 112.922 83.3535C113.303 82.8709 113.709 82.6687 114.313 82.6687C115.06 82.6687 115.525 82.9904 115.792 83.6983C115.993 84.2314 115.997 84.2728 115.997 88.1014V91.6313H117.186H118.379L118.368 88.1014C118.354 84.1487 118.368 84.3509 118.075 83.6017C117.827 82.9583 117.307 82.3424 116.743 82.0206C116.289 81.7633 115.865 81.653 115.21 81.6254C114.705 81.607 114.573 81.6162 114.24 81.7035C113.428 81.9149 112.772 82.3929 112.359 83.0824L112.191 83.3673V80.651V77.9346H111.001H109.812V84.783Z" fill="white"/>
<path d="M159.26 80.3988L158.985 81.7685L158.404 81.7915L157.822 81.8145L157.683 82.3201C157.606 82.5958 157.544 82.8302 157.54 82.8348C157.54 82.844 157.851 82.8486 158.235 82.8486H158.927L158.938 86.236L158.949 89.628L159.044 90.0049C159.275 90.9379 159.736 91.4665 160.523 91.7193C161.214 91.9445 162.55 91.8572 163.304 91.5446L163.487 91.4665L163.498 90.9288L163.509 90.391L163.315 90.4967C162.865 90.7449 162.341 90.8184 161.979 90.6852C161.741 90.5978 161.522 90.3266 161.412 89.9819L161.328 89.7199L161.317 86.282L161.309 82.8486H162.254H163.202L163.315 82.3752C163.381 82.1178 163.432 81.8788 163.432 81.8466C163.432 81.8053 163.18 81.7915 162.371 81.7915H161.309V80.4126V79.0338H160.42H159.534L159.26 80.3988Z" fill="white"/>
<path d="M102.674 81.6409C102.363 81.6777 101.693 81.8431 101.408 81.958C99.9071 82.5555 98.9959 83.8287 98.758 85.6718C98.6958 86.1498 98.6884 87.1793 98.7397 87.6527C98.9959 89.9095 100.16 91.2883 102.173 91.7158C103.065 91.9042 104.233 91.8858 105.089 91.6698C106.359 91.3481 107.271 90.6035 107.68 89.5464C107.794 89.2568 107.852 89.027 107.94 88.5352L107.962 88.4111L107.08 88.4203L106.198 88.4341L106.118 88.7788C106.019 89.1971 105.927 89.4223 105.733 89.7348C105.276 90.461 104.504 90.8379 103.589 90.7874C103.091 90.7598 102.824 90.6816 102.454 90.461C101.836 90.0933 101.43 89.3993 101.203 88.3376C101.122 87.9423 101.108 87.763 101.093 86.9541C101.078 86.2141 101.086 85.9292 101.137 85.5615C101.334 84.0585 101.883 83.1668 102.839 82.7945C103.08 82.7026 103.186 82.6888 103.735 82.6888C104.284 82.6888 104.39 82.7026 104.632 82.7945C105.389 83.0887 105.953 83.8287 106.143 84.7801L106.195 85.0329L107.08 85.0467L107.966 85.0559L107.94 84.8858C107.739 83.4886 106.97 82.482 105.73 81.9856C105.034 81.7098 104.398 81.6041 103.453 81.6179C103.106 81.6225 102.754 81.6317 102.674 81.6409Z" fill="white"/>
<path d="M123.591 81.652C122.511 81.822 121.677 82.2816 121.128 83.0124C120.751 83.5088 120.583 83.9179 120.451 84.6257L120.4 84.9153H121.289H122.178L122.204 84.6992C122.266 84.1799 122.533 83.5456 122.822 83.2331C123.002 83.0308 123.331 82.8286 123.631 82.7321C123.887 82.6493 124.579 82.6401 124.864 82.7137C125.355 82.8424 125.757 83.2055 125.962 83.7065C126.138 84.1247 126.186 84.4143 126.189 85.0715L126.193 85.6277L124.638 85.6553C122.804 85.6874 122.515 85.7334 121.732 86.1195C120.985 86.4918 120.484 87.1306 120.271 87.9717C120.151 88.4497 120.162 89.2541 120.297 89.7689C120.407 90.1963 120.667 90.6927 120.912 90.9455C121.428 91.4786 122.207 91.7728 123.283 91.8372C124.531 91.9153 125.633 91.4373 126.215 90.564L126.369 90.3296L126.456 90.8536C126.504 91.1385 126.552 91.4281 126.563 91.497L126.588 91.6257H127.701C128.689 91.6257 128.813 91.6165 128.795 91.5568C128.74 91.3683 128.623 90.1274 128.59 89.346C128.572 88.868 128.553 87.6224 128.553 86.5791C128.553 85.0026 128.543 84.6257 128.495 84.3499C128.246 82.9573 127.338 82.0564 125.845 81.7209C125.443 81.629 124.012 81.5876 123.591 81.652ZM126.189 87.7649C126.189 88.6658 126.178 88.891 126.123 89.1208C125.966 89.7781 125.618 90.3112 125.172 90.5732C124.853 90.7616 124.378 90.8628 123.979 90.8306C123.064 90.7524 122.621 90.1963 122.562 89.0473C122.504 87.9258 122.896 87.1996 123.741 86.8641C124.107 86.717 124.531 86.671 125.461 86.6802L126.193 86.6848L126.189 87.7649Z" fill="white"/>
<path d="M135.073 81.6805C134.246 81.9011 133.657 82.4757 133.295 83.4225L133.17 83.7442L133.163 82.779L133.152 81.8184L131.973 81.8046L130.791 81.7954V86.7134V91.6313H131.981H133.17V89.131C133.17 87.0903 133.181 86.5571 133.225 86.2262C133.309 85.6287 133.404 85.2564 133.613 84.7324C133.906 84.0016 134.243 83.6201 134.817 83.3765C135.066 83.2708 135.75 83.257 135.963 83.3536C136.039 83.3857 136.109 83.4041 136.116 83.3949C136.157 83.349 136.27 81.7219 136.237 81.6805C136.186 81.607 135.344 81.607 135.073 81.6805Z" fill="white"/>
<path d="M140.95 81.6337C138.718 81.9784 137.327 83.532 137.067 85.9588C137.009 86.5195 137.045 87.5858 137.14 88.073C137.323 88.9969 137.612 89.6541 138.11 90.27C138.725 91.0376 139.472 91.4926 140.507 91.727C141.075 91.8557 142.319 91.8649 142.872 91.75C143.907 91.5248 144.701 91.0881 145.298 90.4079C145.646 90.0172 145.953 89.3875 146.107 88.7578C146.147 88.5878 146.184 88.4361 146.184 88.4269C146.184 88.4177 145.785 88.4131 145.302 88.4177L144.416 88.4315L144.368 88.6613C144.222 89.3829 143.984 89.8747 143.607 90.2332C143.311 90.509 143.065 90.6377 142.641 90.7296C142.041 90.8629 141.312 90.7848 140.829 90.5458C140.434 90.3435 140.061 89.9299 139.83 89.4427C139.589 88.9187 139.413 87.9995 139.413 87.2273V86.7999L142.846 86.7907L146.275 86.7769L146.264 86.3862C146.224 84.9798 145.862 83.8675 145.17 83.0264C144.61 82.3415 143.947 81.9463 142.974 81.7165C142.663 81.6475 141.254 81.5878 140.95 81.6337ZM142.312 82.7138C142.883 82.8655 143.351 83.3527 143.633 84.0881C143.79 84.5018 143.918 85.0441 143.969 85.5221L143.991 85.7427H141.726H139.457L139.508 85.4118C139.585 84.9016 139.662 84.6029 139.816 84.203C140.116 83.4308 140.566 82.9391 141.177 82.7368C141.411 82.6541 142.044 82.6449 142.312 82.7138Z" fill="white"/>
<path d="M151.094 81.6744C149.494 81.9318 148.543 82.7039 148.345 83.9035C148.29 84.2299 148.323 84.8825 148.404 85.1445C148.759 86.266 149.761 86.8727 152.1 87.3921C153.059 87.6035 153.505 87.8241 153.879 88.2607C154.146 88.5687 154.223 88.7985 154.197 89.203C154.128 90.2555 153.3 90.853 152.009 90.7841C150.834 90.7197 150.208 90.1958 149.937 89.0467L149.882 88.8215H149.008C148.524 88.8215 148.129 88.8261 148.129 88.8353C148.129 88.8445 148.169 88.9961 148.217 89.1708C148.748 91.138 150.288 92.0159 152.861 91.8182C154.314 91.7079 155.269 91.3632 155.895 90.7289C156.433 90.182 156.715 89.1754 156.572 88.2975C156.492 87.8103 156.364 87.4932 156.1 87.1393C155.496 86.3303 154.552 85.8523 152.704 85.4203C151.591 85.1583 151.112 84.9469 150.881 84.6206C150.669 84.3172 150.651 83.6829 150.848 83.3198C150.962 83.1038 151.211 82.9062 151.515 82.7867C151.738 82.6993 151.851 82.6855 152.429 82.6855C153.015 82.6855 153.117 82.6993 153.363 82.7913C153.999 83.0395 154.431 83.5588 154.625 84.3034L154.688 84.547H155.566H156.444L156.419 84.3953C156.188 82.9981 155.255 82.088 153.692 81.7341C153.147 81.6146 151.683 81.5779 151.094 81.6744Z" fill="white"/>
<path d="M88.2591 85.2121C88.2591 88.9856 88.2591 88.9993 88.486 89.6888C88.6141 90.0657 88.9471 90.6494 89.174 90.8792C89.5656 91.2837 90.0743 91.5778 90.6379 91.7295C91.1173 91.8582 91.992 91.8628 92.4312 91.7479C93.251 91.5227 93.9866 90.9481 94.3379 90.2495L94.444 90.0427V90.8332V91.6238H95.6335H96.8229V86.7058V81.7879H95.6335H94.444V84.8628C94.444 87.4045 94.4331 88.002 94.3891 88.3375C94.2098 89.6198 93.6169 90.5115 92.8008 90.7321C92.1347 90.9068 91.4321 90.7045 91.0954 90.2357C90.9343 90.0151 90.7623 89.5923 90.6855 89.2246C90.6306 88.9672 90.6233 88.5121 90.6123 85.3591L90.5976 81.7879H89.4265H88.2591V85.2121Z" fill="white"/>
<path d="M75.8659 99.5889V101.312H76.0708H76.2757V99.5889V97.866H76.0708H75.8659V99.5889Z" fill="white"/>
<path d="M81.7525 99.5889V101.312H81.9201H82.0877L82.0914 99.7621L82.097 98.2124L83.3226 99.7621L84.5501 101.312H84.632H84.714V99.5889V97.866H84.5556H84.3973V99.2573V100.651L84.3526 100.604C84.3303 100.578 83.8311 99.9521 83.2444 99.2108L82.179 97.866H81.9648H81.7525V99.5889Z" fill="white"/>
<path d="M90.1899 97.8545C90.1917 97.862 90.5698 98.648 91.0336 99.6016L91.8774 101.334H91.9686H92.0617L92.9427 99.6109C93.4289 98.6629 93.8293 97.8769 93.8349 97.8638C93.8424 97.8452 93.8144 97.8415 93.7101 97.8452L93.576 97.8508L92.8217 99.3353C92.4063 100.153 92.0617 100.822 92.0543 100.822C92.0487 100.822 91.7283 100.153 91.3447 99.3353L90.6462 97.8508L90.4171 97.8452C90.2923 97.8433 90.1899 97.8471 90.1899 97.8545Z" fill="white"/>
<path d="M99.3101 99.5889V101.312H100.735H102.16V101.209V101.107H100.94H99.7199V100.334V99.5609H100.791H101.862V99.4585V99.356H100.791H99.7199V98.7135V98.0709H100.94H102.16V97.9684V97.866H100.735H99.3101V99.5889Z" fill="white"/>
<path d="M108.828 97.8335C108.607 97.8577 108.35 97.9322 108.18 98.0198C107.836 98.1986 107.677 98.4836 107.735 98.8188C107.772 99.0349 107.856 99.1597 108.052 99.2882C108.277 99.4372 108.575 99.5322 109.285 99.6831C109.728 99.7762 110.034 99.901 110.179 100.046C110.292 100.16 110.319 100.234 110.319 100.447C110.319 100.612 110.313 100.644 110.268 100.728C110.179 100.897 109.987 101.028 109.713 101.102C109.616 101.128 109.519 101.136 109.22 101.136C108.888 101.136 108.83 101.132 108.702 101.093C108.281 100.972 108.08 100.748 108.009 100.32L107.998 100.251H107.825C107.73 100.251 107.648 100.255 107.642 100.26C107.62 100.285 107.687 100.547 107.748 100.676C107.839 100.87 108.029 101.056 108.24 101.164C108.776 101.432 109.719 101.432 110.238 101.162C110.596 100.976 110.754 100.706 110.734 100.324C110.726 100.193 110.713 100.136 110.667 100.039C110.507 99.698 110.142 99.5191 109.192 99.3199C108.417 99.1578 108.16 99.0014 108.136 98.6791C108.111 98.3979 108.264 98.2098 108.611 98.0943C108.747 98.0477 108.774 98.0458 109.136 98.0458C109.449 98.044 109.538 98.0496 109.637 98.0775C109.79 98.1203 109.944 98.1986 110.041 98.2843C110.119 98.3513 110.24 98.5581 110.263 98.6624L110.276 98.7238H110.462H110.648L110.637 98.653C110.63 98.6158 110.594 98.5227 110.559 98.4463C110.337 97.9732 109.672 97.7385 108.828 97.8335Z" fill="white"/>
<path d="M116.216 97.9684V98.0709H116.952H117.688V99.6913V101.312H117.893H118.097V99.6913V98.0709H118.824H119.55V97.9684V97.866H117.883H116.216V97.9684Z" fill="white"/>
<path d="M125.023 99.5896V101.312H125.144H125.265L125.268 99.7796L125.274 98.2448L126.01 99.7796L126.745 101.312L126.827 101.309L126.911 101.303L127.619 99.8057L128.329 98.31L128.334 99.8113L128.338 101.312H128.543H128.748V99.5896V97.8649L128.513 97.8704L128.278 97.876L127.597 99.3214C127.22 100.117 126.909 100.765 126.904 100.763C126.898 100.759 126.583 100.106 126.205 99.3121L125.518 97.8667H125.27H125.023V99.5896Z" fill="white"/>
<path d="M134.229 99.5889V101.312H135.645H137.06V101.209V101.107H135.85H134.639V100.334V99.5609H135.71H136.781V99.4585V99.356H135.71H134.639V98.7135V98.0709H135.85H137.06V97.9684V97.866H135.645H134.229V99.5889Z" fill="white"/>
<path d="M142.533 99.5889V101.312H142.691H142.85L142.853 99.7546L142.859 98.1975L144.088 99.7546L145.318 101.31H145.398L145.476 101.312V99.5889V97.866H145.318H145.159L145.156 99.2517L145.15 100.638L144.051 99.2517L142.952 97.866H142.744H142.533V99.5889Z" fill="white"/>
<path d="M150.955 97.9684V98.0709H151.691H152.426V99.6913V101.312H152.631H152.836V99.6913V98.0709H153.572H154.307V97.9684V97.866H152.631H150.955V97.9684Z" fill="white"/>
<path d="M160.98 97.8309C160.228 97.9184 159.79 98.3077 159.878 98.8124C159.906 98.9763 159.956 99.0732 160.068 99.1868C160.274 99.3898 160.567 99.4979 161.424 99.6823C161.975 99.8015 162.269 99.9374 162.392 100.133C162.47 100.254 162.497 100.398 162.469 100.548C162.415 100.845 162.193 101.029 161.798 101.111C161.558 101.161 161.062 101.15 160.841 101.09C160.468 100.992 160.239 100.757 160.174 100.407C160.161 100.347 160.15 100.286 160.146 100.273C160.142 100.258 160.088 100.25 159.962 100.25H159.785V100.303C159.785 100.33 159.798 100.405 159.813 100.465C159.893 100.777 160.098 101.023 160.399 101.169C160.735 101.329 161.161 101.392 161.625 101.353C162.314 101.292 162.729 101.048 162.849 100.634C162.897 100.466 162.88 100.183 162.815 100.038C162.67 99.7232 162.28 99.5221 161.496 99.3545C160.71 99.1887 160.45 99.0807 160.332 98.8665C160.286 98.7826 160.278 98.751 160.28 98.6299C160.282 98.4045 160.386 98.2574 160.625 98.1456C160.818 98.0562 161.008 98.0283 161.368 98.0395C161.794 98.0506 161.988 98.1102 162.185 98.2872C162.282 98.3729 162.381 98.5442 162.403 98.6597L162.415 98.723H162.599C162.811 98.723 162.808 98.7268 162.746 98.5461C162.662 98.3002 162.489 98.1177 162.217 97.9892C162.124 97.9426 161.994 97.8942 161.927 97.8774C161.664 97.8141 161.284 97.7955 160.98 97.8309Z" fill="white"/>
</svg>
